<?xml version="1.0" standalone="no"?>
<!DOCTYPE svg PUBLIC "-//W3C//DTD SVG 20010904//EN"
 "http://www.w3.org/TR/2001/REC-SVG-20010904/DTD/svg10.dtd">
<svg version="1.0" xmlns="http://www.w3.org/2000/svg"
 width="152.000000pt" height="152.000000pt" viewBox="0 0 152.000000 152.000000"
 preserveAspectRatio="xMidYMid meet">

<g transform="translate(0.000000,152.000000) scale(0.100000,-0.100000)"
fill="#000000" stroke="none">
<path d="M1 1198 l0 -323 20 75 c70 271 278 478 549 549 l75 20 -322 0 -323 1
1 -322z"/>
<path d="M947 1500 c39 -10 95 -29 124 -41 l53 -23 -31 -9 c-27 -8 -40 -5 -77
17 -25 15 -46 24 -46 19 0 -4 -4 -3 -9 3 -6 5 -53 7 -113 3 -93 -5 -111 -9
-183 -44 -118 -56 -208 -150 -274 -287 -27 -57 -56 -132 -65 -168 -29 -123
-61 -330 -71 -470 -5 -57 -16 -145 -20 -160 -1 -3 -5 -23 -10 -45 -13 -70 -18
-69 -72 2 -62 82 -106 172 -132 273 l-20 75 0 -322 -1 -323 363 0 c243 0 367
4 374 11 5 5 8 27 6 47 -4 37 -4 37 33 39 21 1 49 11 63 21 14 10 46 28 71 39
25 11 71 41 102 66 32 26 63 47 70 47 9 0 9 -3 0 -12 -7 -7 -12 -20 -12 -30 0
-18 -66 -177 -80 -192 -5 -5 -32 -14 -62 -21 -47 -12 -16 -13 270 -14 l322 -1
-1 323 0 322 -20 -75 c-19 -75 -72 -200 -85 -200 -3 0 -3 17 1 38 5 20 8 56 7
80 -1 23 2 42 6 42 10 0 -3 240 -21 390 -18 146 -52 262 -102 344 -19 32 -33
61 -31 63 2 3 32 -28 65 -69 73 -86 134 -204 161 -308 l19 -75 0 323 1 322
-322 -1 -323 0 72 -19z m-4 -275 c15 -4 27 -13 27 -20 0 -17 27 -27 34 -12 4
7 4 2 2 -10 -3 -15 1 -23 10 -23 7 0 11 -6 8 -13 -2 -7 12 -33 33 -58 21 -24
47 -61 58 -82 11 -21 28 -47 38 -57 9 -11 17 -23 17 -28 0 -4 5 -13 12 -20 6
-6 14 -22 16 -34 8 -42 7 -183 -2 -223 l-9 -40 22 24 c11 13 21 32 21 42 0 30
18 31 23 2 4 -26 4 -25 6 5 0 20 5 31 11 27 17 -11 42 15 30 30 -7 9 -5 19 10
36 16 21 20 21 21 7 1 -10 3 -22 4 -28 1 -5 3 -22 4 -36 0 -14 5 -22 11 -19 6
3 10 -1 10 -9 0 -9 -4 -16 -9 -16 -5 0 -7 -8 -5 -18 6 -20 -50 -108 -78 -123
-11 -6 -33 -9 -48 -7 -27 4 -30 0 -66 -79 -30 -69 -49 -95 -101 -143 -35 -32
-81 -66 -101 -75 -20 -9 -57 -27 -82 -38 -63 -31 -163 -29 -213 2 -21 12 -37
27 -37 33 0 6 -11 26 -25 43 -13 18 -22 35 -19 38 3 3 -3 11 -14 18 -12 8 -18
19 -14 28 5 14 3 14 -10 3 -13 -10 -18 -10 -24 -1 -5 8 -3 10 7 5 8 -5 8 -2
-2 6 -23 19 -42 58 -46 93 -2 23 0 26 7 15 9 -13 11 -13 20 0 17 26 11 50 -15
62 -13 6 -29 24 -35 41 -13 39 -13 133 0 158 11 20 54 26 65 9 3 -5 12 -7 20
-4 8 4 13 10 10 15 -3 4 22 11 55 15 39 4 60 11 60 20 0 7 8 14 18 16 33 7
-59 41 -126 47 -38 4 -67 11 -69 18 -7 20 38 24 107 9 72 -16 94 -8 66 23 -10
11 -42 23 -78 30 -34 6 -62 12 -64 14 -6 6 23 91 46 134 28 55 70 89 123 104
23 6 51 16 61 21 55 29 136 39 199 23z m412 -406 c10 -14 1 -21 -19 -13 -9 3
-13 10 -10 15 7 12 21 11 29 -2z m-805 -25 c0 -8 -5 -12 -10 -9 -6 4 -8 11 -5
16 9 14 15 11 15 -7z m85 -4 c3 -5 1 -10 -4 -10 -6 0 -11 5 -11 10 0 6 2 10 4
10 3 0 8 -4 11 -10z"/>
<path d="M920 931 c-76 -11 -100 -20 -100 -38 0 -13 9 -14 53 -9 137 17 158
18 187 6 42 -17 48 -7 11 20 -37 25 -77 31 -151 21z"/>
<path d="M882 830 c-11 -8 -25 -25 -31 -37 -9 -18 -8 -23 7 -27 46 -13 183 -4
212 14 24 15 -32 58 -82 64 -61 7 -85 4 -106 -14z m33 -58 c-1 -1 -10 0 -19 4
-13 5 -14 9 -4 21 10 13 13 13 19 -4 3 -10 5 -19 4 -21z m85 24 c0 -3 -4 -8
-10 -11 -5 -3 -10 -1 -10 4 0 6 5 11 10 11 6 0 10 -2 10 -4z"/>
<path d="M1235 630 c-3 -5 1 -10 9 -10 9 0 16 5 16 10 0 6 -4 10 -9 10 -6 0
-13 -4 -16 -10z"/>
<path d="M1237 563 c-13 -12 -7 -23 11 -22 10 0 12 3 4 6 -6 2 -10 9 -6 14 6
10 0 12 -9 2z"/>
<path d="M646 550 c6 -6 21 -13 35 -16 13 -3 35 -8 48 -11 16 -4 27 0 33 11 7
13 17 16 34 12 14 -4 24 -2 24 4 0 17 -58 11 -68 -6 -9 -16 -12 -16 -42 0 -37
18 -80 22 -64 6z"/>
<path d="M623 473 c-29 -3 -43 -9 -43 -19 0 -8 4 -14 8 -14 5 0 14 -18 21 -40
6 -22 23 -47 36 -56 29 -19 139 -31 149 -16 4 6 -2 8 -14 5 -34 -9 -89 7 -101
29 -10 19 -9 20 10 15 11 -3 21 -2 21 3 0 4 -12 11 -27 15 -28 7 -55 34 -46
48 3 4 11 3 19 -4 11 -9 14 -9 14 0 0 7 5 9 11 5 7 -4 54 -7 105 -6 77 0 94
-2 94 -14 0 -9 -4 -12 -10 -9 -5 3 -10 1 -10 -5 0 -7 -6 -10 -14 -7 -8 3 -17
-1 -20 -9 -4 -11 1 -13 22 -8 21 4 24 3 12 -5 -8 -6 -11 -11 -6 -11 5 0 16 7
25 15 9 8 27 24 40 34 l25 18 -22 12 c-13 7 -62 14 -110 16 -48 2 -100 6 -117
8 -16 2 -49 2 -72 0z"/>
<path d="M748 373 c6 -2 18 -2 25 0 6 3 1 5 -13 5 -14 0 -19 -2 -12 -5z"/>
<path d="M820 350 c-8 -5 -10 -10 -5 -10 6 0 17 5 25 10 8 5 11 10 5 10 -5 0
-17 -5 -25 -10z"/>
</g>
</svg>
